<svg xmlns="http://www.w3.org/2000/svg" viewBox="0 0 904.88 300"><defs><style>.cls-1{fill:#333;}</style></defs><title>darkfull</title><g id="Layer_2" data-name="Layer 2"><g id="Layer_1-2" data-name="Layer 1"><g id="Udemy_Logo_-_Black" data-name="Udemy Logo - Black"><path class="cls-1" d="M296.84,0c-8.9,1-15.39,3.64-19.81,8.43a24.74,24.74,0,0,0-5.32,9.45,45,45,0,0,0-1.81,13.45V82a66.58,66.58,0,0,0-15.09-8.09,69.93,69.93,0,0,0-25-4.51c-24.19,0-42.89,7.06-55.6,21S154.85,125.52,154.85,153c0,27,6.52,47.93,19.39,62.17,13,14.4,32.16,21.71,56.92,21.71a91.63,91.63,0,0,0,30.72-4.9,63.74,63.74,0,0,0,23.06-14,60.27,60.27,0,0,0,14.46-22,79.84,79.84,0,0,0,5-28.79V6.46A6.73,6.73,0,0,0,296.84,0ZM269.89,164.44a51.5,51.5,0,0,1-2.55,16.79,32.5,32.5,0,0,1-7.43,12.29,31.78,31.78,0,0,1-12.1,7.6,49.33,49.33,0,0,1-16.66,2.62,53.89,53.89,0,0,1-18.64-2.84,29.93,29.93,0,0,1-13-8.87c-6.87-8.12-10.21-20.89-10.21-39a91.35,91.35,0,0,1,2.6-23.17,41.82,41.82,0,0,1,7.77-16,30.81,30.81,0,0,1,5.82-5.46,32.83,32.83,0,0,1,7.15-3.85,50.77,50.77,0,0,1,18.46-3.05,42.72,42.72,0,0,1,14.8,2.62,39.72,39.72,0,0,1,12.35,7.23,32.14,32.14,0,0,1,11.58,24.46Z"/><path class="cls-1" d="M139.65,82a6.66,6.66,0,0,0-6.83-6.46c-.24,0-.49,0-.73,0-8.91.88-15.39,3.64-19.81,8.43A24.74,24.74,0,0,0,107,93.47a45,45,0,0,0-1.81,13.45v63.83a49.65,49.65,0,0,1-2,15.19A23.25,23.25,0,0,1,97,196.12a25.66,25.66,0,0,1-10.89,5.82,60,60,0,0,1-16.24,1.88,60,60,0,0,1-16.24-1.88,25.66,25.66,0,0,1-10.89-5.82,23.25,23.25,0,0,1-6.19-10.18,49.65,49.65,0,0,1-2-15.19V82.13a6.66,6.66,0,0,0-6.83-6.46c-.24,0-.49,0-.73,0C18,76.6,11.56,79.36,7.13,84.15A24.74,24.74,0,0,0,1.81,93.6,45,45,0,0,0,0,107v65c0,19.52,4.4,34.14,13.46,44.72,11.59,13.53,30,20.11,56.37,20.11s45-6.58,56.5-20.12c9-10.51,13.32-25.14,13.32-44.71V82Z"/><path class="cls-1" d="M904.23,76.81A8.85,8.85,0,0,0,899,71.92a39.34,39.34,0,0,0-13.56-2.46,31.66,31.66,0,0,0-14.56,3.37c-4.71,2.45-7.43,5-9.42,8.85l-42,91.93L779.61,81.48l-.08-.16c-2.15-4.18-5-6.28-9.3-8.49a31.66,31.66,0,0,0-14.56-3.37,39.46,39.46,0,0,0-13.61,2.48,8.83,8.83,0,0,0-5.13,4.86,8.29,8.29,0,0,0,.12,6.71L798.2,220.57c-1.54,3.57-2.94,6.83-4.31,9.9-5,11.16-9.48,19.71-15.16,25.18a26,26,0,0,1-9.23,5.83,37.53,37.53,0,0,1-12.93,2H742.33a11.49,11.49,0,0,0-8.59,3.67,10.72,10.72,0,0,0-2.79,8.27,23.77,23.77,0,0,0,3.27,10.16,26.87,26.87,0,0,0,7.07,7.77A35.07,35.07,0,0,0,762.22,300a63.4,63.4,0,0,0,21-3.42A59.07,59.07,0,0,0,801.2,286.4a80.73,80.73,0,0,0,14.93-16.56,137.9,137.9,0,0,0,12.35-22.53L904.09,83.55A8.31,8.31,0,0,0,904.23,76.81Z"/><path class="cls-1" d="M732.67,228.87l-.06-94.61c0-17.89-4.71-32.47-14-43.32-12.21-14.26-31.87-21.49-58.46-21.49a92.86,92.86,0,0,0-15.53,1.23,67,67,0,0,0-13.47,3.71,56.5,56.5,0,0,0-11.55,6.21,57.54,57.54,0,0,0-8,6.82,59.17,59.17,0,0,0-21.4-12.88,95.17,95.17,0,0,0-32.11-5.1A67.86,67.86,0,0,0,536,73a57.56,57.56,0,0,0-16,8.41,24.43,24.43,0,0,0-3.19-3.58,26.94,26.94,0,0,0-6.19-4.23,44.4,44.4,0,0,0-16.09-4.12,9.89,9.89,0,0,0-7.18,2.16,7.58,7.58,0,0,0-2.84,5.86l.06,130.75a30.41,30.41,0,0,0,2.56,12.83,23.36,23.36,0,0,0,6.77,8.56c4.6,3.64,10.8,6,19,7.17,5.57.79,9.43-2.51,9.43-7.95L522.24,134a37.3,37.3,0,0,1,2.11-13.18,21.83,21.83,0,0,1,6.09-8.88,26.73,26.73,0,0,1,10.3-5.3,55.15,55.15,0,0,1,14.94-1.81,62.24,62.24,0,0,1,16.13,1.74A23,23,0,0,1,582.08,112,22.24,22.24,0,0,1,587.83,122a58.7,58.7,0,0,1,1.91,16.41l.06,69.8a30.4,30.4,0,0,0,2.56,12.83,23.36,23.36,0,0,0,6.77,8.56c4.6,3.64,10.8,6,19,7.17,5.58.79,9.43-2.51,9.43-7.95l-.06-94.61c0-10.54,2.56-17.94,7.81-22.6s13.35-6.87,24.9-6.87c12.82,0,21.3,2.37,26.68,7.46a23,23,0,0,1,6,10.14,54,54,0,0,1,2,16.07l.06,69.8a30.37,30.37,0,0,0,2.56,12.83,23.36,23.36,0,0,0,6.77,8.56c4.6,3.64,10.8,6,19,7.17a11.62,11.62,0,0,0,1.62.12,7.73,7.73,0,0,0,5.58-2.11A8.14,8.14,0,0,0,732.67,228.87Z"/><path class="cls-1" d="M395.79,69.43c-12,0-23,1.88-32.48,5.59A63.69,63.69,0,0,0,339.2,91.35a71.23,71.23,0,0,0-14.95,26.27c-3.39,10.37-5.11,22.27-5.11,35.37,0,14.47,2,27.35,6,38.26a64.74,64.74,0,0,0,42.16,40.93,101.89,101.89,0,0,0,31.89,4.69c28.59,0,61.35-17.43,61.35-39.71a15.13,15.13,0,0,0-2.95-8.94,9.64,9.64,0,0,0-7.68-4.18,10.19,10.19,0,0,0-5.19,1.53c-2.42,1.43-4.75,3.05-7.22,4.77-9,6.29-19.23,13.41-38.32,13.41a60.23,60.23,0,0,1-18-2.51,38.75,38.75,0,0,1-13.75-7.44,35.4,35.4,0,0,1-9.15-12.29,49.71,49.71,0,0,1-4.07-16.34h93.1a21.15,21.15,0,0,0,11.52-2.9,16,16,0,0,0,6-7.12c2.47-5.5,2.47-12.23,2.47-16.68,0-7.51-1.29-26.76-13.25-43.17C441.58,78.13,422,69.43,395.79,69.43Zm35.88,64.25a4,4,0,0,1-3,1.33H354.53A48.76,48.76,0,0,1,359,120.63a32.78,32.78,0,0,1,8.5-10.66,35.08,35.08,0,0,1,12.28-6.31,56.71,56.71,0,0,1,16-2.09c11.23,0,19.59,2.27,25.56,6.93s9.77,12.1,11.16,22.39A3.48,3.48,0,0,1,431.67,133.68Z"/></g></g></g></svg>